HIERARCHY
ROOT Hips
{
 OFFSET 0.000000 0.000000 0.000000
 CHANNELS 6 Xposition Yposition Zposition Yrotation Xrotation Zrotation
 JOINT Chest
 {
  OFFSET 0.000000 9.588913 -0.003946
  CHANNELS 3 Yrotation Xrotation Zrotation
  JOINT Chest2
  {
   OFFSET 0.000000 9.541882 0.008053
   CHANNELS 3 Yrotation Xrotation Zrotation
   JOINT Chest3
   {
    OFFSET 0.000000 9.501360 0.000000
    CHANNELS 3 Yrotation Xrotation Zrotation
    JOINT Chest4
    {
     OFFSET 0.000000 9.491660 0.000000
     CHANNELS 3 Yrotation Xrotation Zrotation
     JOINT Neck
     {
      OFFSET 0.000000 14.331917 0.000000
      CHANNELS 3 Yrotation Xrotation Zrotation
      JOINT Head
      {
       OFFSET 0.000000 8.884799 0.017034
       CHANNELS 3 Yrotation Xrotation Zrotation
       End Site
       {
        OFFSET 0.000000 16.896195 0.008993
       }
      }
     }
     JOINT RightCollar
     {
      OFFSET -2.923010 9.499495 0.000000
      CHANNELS 3 Yrotation Xrotation Zrotation
      JOINT RightShoulder
      {
       OFFSET -13.795216 0.000000 0.000000
       CHANNELS 3 Yrotation Xrotation Zrotation
       JOINT RightElbow
       {
        OFFSET -30.272209 0.000000 0.000000
        CHANNELS 3 Yrotation Xrotation Zrotation
        JOINT RightWrist
        {
         OFFSET -24.478199 0.000000 0.000000
         CHANNELS 3 Yrotation Xrotation Zrotation
         End Site
         {
          OFFSET -18.090752 0.000000 0.000000
         }
        }
       }
      }
     }
     JOINT LeftCollar
     {
      OFFSET 2.923010 9.499495 0.000000
      CHANNELS 3 Yrotation Xrotation Zrotation
      JOINT LeftShoulder
      {
       OFFSET 13.795216 0.000000 0.000000
       CHANNELS 3 Yrotation Xrotation Zrotation
       JOINT LeftElbow
       {
        OFFSET 30.272209 0.000000 0.000000
        CHANNELS 3 Yrotation Xrotation Zrotation
        JOINT LeftWrist
        {
         OFFSET 24.478199 0.000000 0.000000
         CHANNELS 3 Yrotation Xrotation Zrotation
         End Site
         {
          OFFSET 18.090752 0.000000 0.000000
         }
        }
       }
      }
     }
    }
   }
  }
 }
 JOINT RightHip
 {
  OFFSET -7.826875 0.019532 0.001973
  CHANNELS 3 Yrotation Xrotation Zrotation
  JOINT RightKnee
  {
   OFFSET 0.000000 -40.546152 -0.001885
   CHANNELS 3 Yrotation Xrotation Zrotation
   JOINT RightAnkle
   {
    OFFSET 0.000000 -39.417092 -0.003189
    CHANNELS 3 Yrotation Xrotation Zrotation
    JOINT RightToe
    {
     OFFSET 0.000000 -7.579396 17.243563
     CHANNELS 3 Yrotation Xrotation Zrotation
     End Site
     {
      OFFSET 0.000000 -1.500329 6.694466
     }
    }
   }
  }
 }
 JOINT LeftHip
 {
  OFFSET 7.826875 0.019532 0.001973
  CHANNELS 3 Yrotation Xrotation Zrotation
  JOINT LeftKnee
  {
   OFFSET 0.000000 -40.546152 -0.001885
   CHANNELS 3 Yrotation Xrotation Zrotation
   JOINT LeftAnkle
   {
    OFFSET 0.000000 -39.417092 -0.003189
    CHANNELS 3 Yrotation Xrotation Zrotation
    JOINT LeftToe
    {
     OFFSET 0.000000 -7.579396 17.243563
     CHANNELS 3 Yrotation Xrotation Zrotation
     End Site
     {
      OFFSET 0.000000 -1.500329 6.694466
     }
    }
   }
  }
 }
}
MOTION
Frames: 7
Frame Time: 0.008333
0.000000 87.345680 0.000000 0.000000 -5.767889 0.000000 0.000000 11.653876 0.000000 0.000000 -5.885988 0.000000 0.000000 -0.000000 0.000000 0.000000 -0.000000 0.000000 0.000000 12.528808 0.000000 0.000000 0.711711 0.000000 0.000000 -0.000000 0.000000 0.000000 -0.000000 0.000000 2.309063 -0.000000 0.000000 -2.309063 -0.000000 -0.000000 0.000000 -0.000000 0.000000 0.000000 0.000000 0.000000 -2.309063 0.000000 0.000000 2.309063 -0.000000 0.000000 0.000000 8.520374 0.000000 0.000000 1.905768 0.000000 -0.000000 -4.658254 0.000000 0.000000 -0.000000 0.000000 0.000000 8.520374 0.000000 0.000000 1.905768 0.000000 -0.000000 -4.658254 0.000000 0.000000 -0.000000 0.000000
7.142518 86.938775 1.686563 -48.736846 -9.189279 -6.381587 3.088542 3.821797 -1.432607 1.607629 2.020833 0.154519 2.010701 2.525300 0.202042 1.607629 2.020833 0.154519 -0.444549 30.490395 0.304622 -0.562791 8.449714 0.438791 -11.142291 2.210339 -5.357545 -0.278349 1.048848 89.494664 12.276023 0.571966 2.136080 0.875413 -4.983380 -2.620144 -7.754082 -0.204982 4.857419 13.949793 -3.134416 -87.075524 -0.027263 -5.565598 0.246392 -1.150159 0.638006 3.172947 -1.576078 -9.551675 -4.738605 1.271561 39.573551 0.990391 5.873627 -13.846628 16.199842 0.481068 -1.493944 0.100830 9.225874 9.095804 4.666091 -4.467029 6.859777 -0.283881 -1.971405 -18.711056 -9.023710 0.593728 2.974008 0.145014
7.115577 86.942401 1.676869 -48.752459 -9.193922 -6.378192 3.089957 3.812536 -1.429788 1.608963 2.014350 0.154274 2.012362 2.517197 0.201714 1.608963 2.014350 0.154274 -0.431564 30.473631 0.305408 -0.548502 8.427062 0.436717 -11.121554 2.202651 -5.353318 -0.226432 1.010059 89.501848 12.317556 0.556721 2.136433 0.872882 -4.987105 -2.618635 -7.757754 -0.193179 4.861491 13.972503 -3.097423 -87.075802 0.004448 -5.536500 0.248660 -1.151827 0.644612 3.174748 -1.526749 -9.560897 -4.729993 1.288090 39.607054 1.013854 5.862174 -13.833083 16.218126 0.492113 -1.500349 0.095636 9.227335 9.114341 4.686583 -4.456240 6.850694 -0.294606 -1.973233 -18.703070 -9.028201 0.588459 2.975169 0.166836
7.085212 86.946341 1.665731 -48.759886 -9.196969 -6.373640 3.087098 3.803390 -1.427293 1.607994 2.008650 0.154302 2.011147 2.510073 0.201718 1.607994 2.008650 0.154302 -0.420236 30.457122 0.306134 -0.536044 8.404775 0.434951 -11.099045 2.195120 -5.349758 -0.177684 0.970535 89.515594 12.359837 0.537787 2.136115 0.871606 -4.989059 -2.616340 -7.761829 -0.184165 4.861978 13.975017 -3.060859 -87.067159 0.039602 -5.506886 0.249386 -1.152942 0.652504 3.174975 -1.492977 -9.570200 -4.720478 1.301718 39.642230 1.032592 5.855675 -13.822053 16.237850 0.501480 -1.504827 0.088884 9.214974 9.129975 4.702932 -4.451715 6.848458 -0.302502 -1.965362 -18.696119 -9.034640 0.581694 2.972204 0.182330
7.052540 86.950441 1.653943 -48.761675 -9.201008 -6.366929 3.081638 3.795094 -1.426071 1.605604 2.004141 0.154238 2.008155 2.504438 0.201605 1.605604 2.004141 0.154238 -0.409628 30.440995 0.308258 -0.524704 8.383023 0.434902 -11.079850 2.187811 -5.345253 -0.137625 0.932362 89.535227 12.406103 0.522088 2.139470 0.871388 -4.991772 -2.618121 -7.767867 -0.175241 4.861651 13.956825 -3.028402 -87.052759 0.077970 -5.474605 0.252543 -1.151401 0.660743 3.172909 -1.472726 -9.575544 -4.712719 1.313171 39.675542 1.049182 5.854437 -13.815485 16.257073 0.508619 -1.504423 0.081903 9.195108 9.146984 4.715040 -4.458092 6.848751 -0.309172 -1.947708 -18.688798 -9.036484 0.573308 2.966934 0.189253
7.018830 86.954528 1.641920 -48.761058 -9.205955 -6.357635 3.075183 3.787757 -1.426360 1.602769 2.000430 0.153956 2.004607 2.499802 0.201221 1.602769 2.000430 0.153956 -0.399916 30.425433 0.311807 -0.514683 8.362056 0.436637 -11.065243 2.183823 -5.340811 -0.109852 0.893741 89.560312 12.458307 0.513073 2.148666 0.871199 -4.994757 -2.622679 -7.776038 -0.164016 4.862839 13.918801 -3.004277 -87.034516 0.122641 -5.435471 0.259047 -1.147588 0.667676 3.169185 -1.465021 -9.576338 -4.707169 1.327014 39.704088 1.066521 5.854668 -13.814841 16.274221 0.514315 -1.496834 0.076059 9.171805 9.168861 4.720687 -4.474814 6.843580 -0.310947 -1.920732 -18.678749 -9.032625 0.563819 2.961884 0.187627
6.984975 86.958488 1.629555 -48.762341 -9.210369 -6.347123 3.069101 3.781326 -1.427250 1.600146 1.997294 0.154040 2.001325 2.495884 0.201298 1.600146 1.997294 0.154040 -0.391765 30.408977 0.315452 -0.506420 8.339906 0.438830 -11.051498 2.182372 -5.337658 -0.092402 0.856963 89.592505 12.519622 0.507876 2.161499 0.872352 -4.996110 -2.624079 -7.785198 -0.152847 4.866835 13.862655 -2.989305 -87.016125 0.173748 -5.387037 0.270470 -1.141581 0.673537 3.165136 -1.463435 -9.574233 -4.701242 1.346473 39.726393 1.086558 5.850575 -13.820025 16.288546 0.519318 -1.482366 0.072713 9.146094 9.197410 4.719053 -4.489327 6.825712 -0.302608 -1.890889 -18.664623 -9.026904 0.553903 2.959521 0.180386
